<mxfile host="app.diagrams.net" agent="Mozilla/5.0 (Windows NT 10.0; Win64; x64) AppleWebKit/537.36 (KHTML, like Gecko) Chrome/131.0.0.0 Safari/537.36" version="26.0.3">
  <diagram name="PÃ¡gina-1" id="-dwOxv0Z12u8FbVkWYQw">
    <mxGraphModel dx="1016" dy="618" grid="1" gridSize="10" guides="1" tooltips="1" connect="1" arrows="1" fold="1" page="1" pageScale="1" pageWidth="827" pageHeight="1169" math="0" shadow="0">
      <root>
        <mxCell id="0" />
        <mxCell id="1" parent="0" />
        <mxCell id="H3zvhjVn_385ZmI4PfrH-9" style="edgeStyle=orthogonalEdgeStyle;rounded=0;orthogonalLoop=1;jettySize=auto;html=1;" edge="1" parent="1" source="H3zvhjVn_385ZmI4PfrH-1" target="H3zvhjVn_385ZmI4PfrH-3">
          <mxGeometry relative="1" as="geometry" />
        </mxCell>
        <mxCell id="H3zvhjVn_385ZmI4PfrH-1" value="Inicio" style="ellipse;whiteSpace=wrap;html=1;" vertex="1" parent="1">
          <mxGeometry x="354" y="50" width="120" height="80" as="geometry" />
        </mxCell>
        <mxCell id="H3zvhjVn_385ZmI4PfrH-2" value="Fim" style="ellipse;whiteSpace=wrap;html=1;" vertex="1" parent="1">
          <mxGeometry x="354" y="545" width="120" height="80" as="geometry" />
        </mxCell>
        <mxCell id="H3zvhjVn_385ZmI4PfrH-10" style="edgeStyle=orthogonalEdgeStyle;rounded=0;orthogonalLoop=1;jettySize=auto;html=1;exitX=0.5;exitY=1;exitDx=0;exitDy=0;" edge="1" parent="1" source="H3zvhjVn_385ZmI4PfrH-3" target="H3zvhjVn_385ZmI4PfrH-5">
          <mxGeometry relative="1" as="geometry" />
        </mxCell>
        <mxCell id="H3zvhjVn_385ZmI4PfrH-3" value="Produto" style="shape=manualInput;whiteSpace=wrap;html=1;" vertex="1" parent="1">
          <mxGeometry x="374" y="150" width="80" height="60" as="geometry" />
        </mxCell>
        <mxCell id="H3zvhjVn_385ZmI4PfrH-11" style="edgeStyle=orthogonalEdgeStyle;rounded=0;orthogonalLoop=1;jettySize=auto;html=1;exitX=0.5;exitY=1;exitDx=0;exitDy=0;" edge="1" parent="1" source="H3zvhjVn_385ZmI4PfrH-5" target="H3zvhjVn_385ZmI4PfrH-6">
          <mxGeometry relative="1" as="geometry" />
        </mxCell>
        <mxCell id="H3zvhjVn_385ZmI4PfrH-5" value="Valor" style="shape=manualInput;whiteSpace=wrap;html=1;" vertex="1" parent="1">
          <mxGeometry x="374" y="230" width="80" height="60" as="geometry" />
        </mxCell>
        <mxCell id="H3zvhjVn_385ZmI4PfrH-12" style="edgeStyle=orthogonalEdgeStyle;rounded=0;orthogonalLoop=1;jettySize=auto;html=1;exitX=0.5;exitY=1;exitDx=0;exitDy=0;entryX=0.5;entryY=0;entryDx=0;entryDy=0;" edge="1" parent="1" source="H3zvhjVn_385ZmI4PfrH-6" target="H3zvhjVn_385ZmI4PfrH-7">
          <mxGeometry relative="1" as="geometry" />
        </mxCell>
        <mxCell id="H3zvhjVn_385ZmI4PfrH-6" value="Desconto" style="shape=manualInput;whiteSpace=wrap;html=1;" vertex="1" parent="1">
          <mxGeometry x="374" y="310" width="80" height="60" as="geometry" />
        </mxCell>
        <mxCell id="H3zvhjVn_385ZmI4PfrH-13" style="edgeStyle=orthogonalEdgeStyle;rounded=0;orthogonalLoop=1;jettySize=auto;html=1;exitX=0.5;exitY=1;exitDx=0;exitDy=0;" edge="1" parent="1" source="H3zvhjVn_385ZmI4PfrH-7" target="H3zvhjVn_385ZmI4PfrH-8">
          <mxGeometry relative="1" as="geometry" />
        </mxCell>
        <mxCell id="H3zvhjVn_385ZmI4PfrH-7" value="Precofinal = Valor - Desconto" style="rounded=1;whiteSpace=wrap;html=1;absoluteArcSize=1;arcSize=14;strokeWidth=2;" vertex="1" parent="1">
          <mxGeometry x="314" y="390" width="200" height="40" as="geometry" />
        </mxCell>
        <mxCell id="H3zvhjVn_385ZmI4PfrH-14" style="edgeStyle=orthogonalEdgeStyle;rounded=0;orthogonalLoop=1;jettySize=auto;html=1;exitX=0.5;exitY=1;exitDx=0;exitDy=0;exitPerimeter=0;" edge="1" parent="1" source="H3zvhjVn_385ZmI4PfrH-8" target="H3zvhjVn_385ZmI4PfrH-2">
          <mxGeometry relative="1" as="geometry" />
        </mxCell>
        <mxCell id="H3zvhjVn_385ZmI4PfrH-8" value="Produto&lt;br&gt;Valor&lt;br&gt;Desconto&lt;br&gt;Precofinal" style="strokeWidth=2;html=1;shape=mxgraph.flowchart.display;whiteSpace=wrap;" vertex="1" parent="1">
          <mxGeometry x="342" y="450" width="144" height="70" as="geometry" />
        </mxCell>
      </root>
    </mxGraphModel>
  </diagram>
</mxfile>
